<?xml version="1.0" encoding="UTF-8"?>
<svg id="Calque_2" data-name="Calque 2" xmlns="http://www.w3.org/2000/svg" width="47.43" height="47.43" viewBox="0 0 47.43 47.43">
  <defs>
    <style>
      .cls-1 {
        fill: #fff;
      }
    </style>
  </defs>
  <rect class="cls-1" x="0" y="0" width="47.43" height="47.43" rx="8.47" ry="8.47"/>
  <path d="M11.08,31.65c2.29,1.47,5.02,2.33,7.95,2.33,9.63,0,15.06-8.13,14.74-15.42,1.01-.73,1.89-1.64,2.59-2.68-.93.41-1.93.69-2.98.82,1.07-.64,1.89-1.66,2.28-2.87-1,.59-2.11,1.03-3.29,1.26-.95-1.01-2.29-1.64-3.78-1.64-3.35,0-5.81,3.12-5.05,6.37-4.31-.22-8.13-2.28-10.69-5.42-1.36,2.33-.7,5.38,1.6,6.92-.85-.03-1.65-.26-2.35-.65-.06,2.4,1.67,4.65,4.16,5.15-.73.2-1.53.24-2.34.09.66,2.06,2.57,3.56,4.84,3.6-2.18,1.71-4.92,2.47-7.68,2.15Z"/>
</svg>