<?xml version="1.0" encoding="UTF-8"?>
<svg id="Calque_2" data-name="Calque 2" xmlns="http://www.w3.org/2000/svg" width="47.43" height="47.43" viewBox="0 0 47.43 47.43">
  <defs>
    <style>
      .cls-1 {
        fill: #fff;
      }
    </style>
  </defs>
  <rect class="cls-1" x="0" y="0" width="47.43" height="47.43" rx="8.47" ry="8.47"/>
  <g>
    <path d="M41.9,14.52c-.44-1.64-1.72-2.94-3.36-3.38-2.96-.8-14.83-.8-14.83-.8,0,0-11.87,0-14.83.8-1.63.44-2.92,1.73-3.36,3.38-.79,2.98-.79,9.2-.79,9.2,0,0,0,6.22.79,9.2.44,1.64,1.72,2.94,3.36,3.38,2.96.8,14.83.8,14.83.8,0,0,11.87,0,14.83-.8,1.63-.44,2.92-1.73,3.36-3.38.79-2.98.79-9.2.79-9.2,0,0,0-6.22-.79-9.2Z"/>
    <polygon class="cls-1" points="19.83 29.36 19.83 18.07 29.75 23.71 19.83 29.36"/>
  </g>
</svg>